<svg xmlns="http://www.w3.org/2000/svg" width="12.326" height="10.784" viewBox="0 0 12.326 10.784"><defs><style>.a{fill:#a2a6bb;}</style></defs><path class="a" d="M3.4,36.236a.77.77,0,1,0,.77.77A.769.769,0,0,0,3.4,36.236Zm2.7,0a.77.77,0,1,0,.77.77A.769.769,0,0,0,6.1,36.236Zm2.7,0a.77.77,0,1,0,.77.77A.769.769,0,0,0,8.793,36.236ZM6.1,32c-3.4,0-6.162,2.241-6.162,5.007a4.425,4.425,0,0,0,1.273,3.04A6.108,6.108,0,0,1,.092,41.809a.578.578,0,0,0,.421.975,5.84,5.84,0,0,0,3.348-1.114,7.434,7.434,0,0,0,2.236.344c3.4,0,6.162-2.241,6.162-5.007S9.5,32,6.1,32Zm0,8.858a6.255,6.255,0,0,1-1.887-.291l-.546-.173-.469.332a5.176,5.176,0,0,1-1.384.7,6.038,6.038,0,0,0,.479-.968l.255-.676-.5-.525a3.311,3.311,0,0,1-.958-2.248c0-2.123,2.246-3.851,5.007-3.851S11.1,34.884,11.1,37.007,8.858,40.858,6.1,40.858Z" transform="translate(0.066 -32)"/></svg>