<svg xmlns="http://www.w3.org/2000/svg" width="10" height="10" viewBox="0 0 10 10"><defs><style>.a{fill:#a2a6bb;}</style></defs><path class="a" d="M2.031,4.375H.469A.469.469,0,0,0,0,4.844V9.531A.469.469,0,0,0,.469,10H2.031A.469.469,0,0,0,2.5,9.531V4.844A.469.469,0,0,0,2.031,4.375ZM1.25,9.219a.469.469,0,1,1,.469-.469A.469.469,0,0,1,1.25,9.219ZM7.5,1.591c0,.828-.507,1.293-.65,1.847H8.837A1.167,1.167,0,0,1,10,4.572a1.414,1.414,0,0,1-.38.961l0,0a1.632,1.632,0,0,1-.182,1.552,1.544,1.544,0,0,1-.32,1.46A1.037,1.037,0,0,1,9,9.419C8.6,9.992,7.61,10,6.774,10H6.719a5.607,5.607,0,0,1-2.335-.62,3.074,3.074,0,0,0-1.028-.316.234.234,0,0,1-.23-.234V4.655a.234.234,0,0,1,.069-.166C3.968,3.724,4.3,2.914,4.935,2.279a2.365,2.365,0,0,0,.5-1.15C5.518.767,5.7,0,6.094,0,6.563,0,7.5.156,7.5,1.591Z"/></svg>